# xmcd
#
# Track frame offsets: 
#        150
#        16653
#        36000
#        51073
#        66595
#        78400
#        91528
#        106533
#        118158
#        130963
#
# Disc length: 1915 seconds
#
# Revision: 5
# Processed by: cddbd v1.5.2PL0 Copyright (c) Steve Scherf et al.
# Submitted via: ExactAudioCopy v0.99pb5
#
DISCID=7307790a
DTITLE=Tina Turner - Sings Country
DYEAR=1979
DGENRE=Country
TTITLE0=Lay It Down
TTITLE1=Lovin' Him Was Easier
TTITLE2=Good Hearted Woman
TTITLE3=If This Was Our Last Time
TTITLE4=Stand By Your Man
TTITLE5=Freedom To Stay
TTITLE6=We Had It All
TTITLE7=Soul Deep
TTITLE8=If It's Alright With You
TTITLE9=You Ain't Woman Emough To Take My Man
EXTD=YEAR: 1979
EXTT0=
EXTT1=
EXTT2=
EXTT3=
EXTT4=
EXTT5=
EXTT6=
EXTT7=
EXTT8=
EXTT9=
PLAYORDER=
